<svg width="260" height="260" viewBox="0 0 260 260" fill="none" xmlns="http://www.w3.org/2000/svg">
<circle cx="130" cy="130" r="130" fill="white"/>
<path d="M206.722 94V139H201.302V94H206.722ZM205.432 121.949L203.177 121.861C203.196 119.693 203.518 117.691 204.143 115.855C204.768 114 205.647 112.389 206.78 111.021C207.913 109.654 209.261 108.6 210.823 107.857C212.405 107.096 214.153 106.715 216.067 106.715C217.63 106.715 219.036 106.93 220.286 107.359C221.536 107.77 222.6 108.434 223.479 109.352C224.378 110.27 225.061 111.461 225.53 112.926C225.999 114.371 226.233 116.139 226.233 118.229V139H220.784V118.17C220.784 116.51 220.54 115.182 220.052 114.186C219.563 113.17 218.85 112.438 217.913 111.988C216.975 111.52 215.823 111.285 214.456 111.285C213.108 111.285 211.878 111.568 210.765 112.135C209.671 112.701 208.724 113.482 207.923 114.479C207.141 115.475 206.526 116.617 206.077 117.906C205.647 119.176 205.432 120.523 205.432 121.949Z" fill="#C10D81"/>
<path d="M111.984 193.125V205H37.5312V194.609L74.7969 153.125C79.3802 148.021 82.9219 143.698 85.4219 140.156C87.974 136.562 89.7448 133.359 90.7344 130.547C91.776 127.682 92.2969 124.766 92.2969 121.797C92.2969 118.047 91.5156 114.661 89.9531 111.641C88.4427 108.568 86.2031 106.12 83.2344 104.297C80.2656 102.474 76.6719 101.562 72.4531 101.562C67.401 101.562 63.1823 102.552 59.7969 104.531C56.4635 106.458 53.9635 109.167 52.2969 112.656C50.6302 116.146 49.7969 120.156 49.7969 124.688H35.3438C35.3438 118.281 36.75 112.422 39.5625 107.109C42.375 101.797 46.5417 97.5781 52.0625 94.4531C57.5833 91.276 64.3802 89.6875 72.4531 89.6875C79.6406 89.6875 85.7865 90.9635 90.8906 93.5156C95.9948 96.0156 99.901 99.5573 102.609 104.141C105.37 108.672 106.75 113.984 106.75 120.078C106.75 123.411 106.177 126.797 105.031 130.234C103.938 133.62 102.401 137.005 100.422 140.391C98.4948 143.776 96.2292 147.109 93.625 150.391C91.0729 153.672 88.3385 156.901 85.4219 160.078L54.9531 193.125H111.984ZM204.328 166.719V178.594H122.141V170.078L173.078 91.25H184.875L172.219 114.062L138.547 166.719H204.328ZM188.469 91.25V205H174.016V91.25H188.469Z" fill="#C10D81"/>
<path d="M94.906 49.4785H96.781C96.6833 50.377 96.4262 51.181 96.0095 51.8906C95.5929 52.6003 95.0037 53.1634 94.2419 53.5801C93.4802 53.9902 92.5297 54.1953 91.3904 54.1953C90.557 54.1953 89.7986 54.0391 89.115 53.7266C88.4379 53.4141 87.8552 52.9714 87.3669 52.3984C86.8787 51.819 86.5011 51.1257 86.2341 50.3184C85.9737 49.5046 85.8435 48.5996 85.8435 47.6035V46.1875C85.8435 45.1914 85.9737 44.2897 86.2341 43.4824C86.5011 42.6686 86.8819 41.972 87.3767 41.3926C87.878 40.8132 88.4802 40.3672 89.1833 40.0547C89.8865 39.7422 90.6775 39.5859 91.5564 39.5859C92.6306 39.5859 93.5388 39.7878 94.281 40.1914C95.0232 40.5951 95.5994 41.1549 96.0095 41.8711C96.4262 42.5807 96.6833 43.4043 96.781 44.3418H94.906C94.8149 43.6777 94.6456 43.1081 94.3982 42.6328C94.1508 42.151 93.7992 41.7799 93.3435 41.5195C92.8878 41.2591 92.2921 41.1289 91.5564 41.1289C90.9249 41.1289 90.3682 41.2493 89.8865 41.4902C89.4112 41.7311 89.0108 42.0729 88.6853 42.5156C88.3663 42.9583 88.1254 43.4889 87.9626 44.1074C87.7999 44.7259 87.7185 45.4128 87.7185 46.168V47.6035C87.7185 48.3001 87.7901 48.9544 87.9333 49.5664C88.0831 50.1784 88.3077 50.7155 88.6072 51.1777C88.9067 51.64 89.2875 52.0046 89.7498 52.2715C90.212 52.5319 90.7589 52.6621 91.3904 52.6621C92.1912 52.6621 92.8292 52.5352 93.3044 52.2812C93.7797 52.0273 94.1378 51.6628 94.3787 51.1875C94.6261 50.7122 94.8018 50.1426 94.906 49.4785ZM110.297 46.4414V47.3398C110.297 48.4076 110.163 49.3646 109.896 50.2109C109.629 51.0573 109.245 51.7767 108.744 52.3691C108.243 52.9616 107.64 53.4141 106.937 53.7266C106.241 54.0391 105.459 54.1953 104.594 54.1953C103.754 54.1953 102.982 54.0391 102.279 53.7266C101.582 53.4141 100.977 52.9616 100.463 52.3691C99.9548 51.7767 99.561 51.0573 99.281 50.2109C99.0011 49.3646 98.8611 48.4076 98.8611 47.3398V46.4414C98.8611 45.3737 98.9978 44.4199 99.2712 43.5801C99.5512 42.7337 99.9451 42.0143 100.453 41.4219C100.961 40.8229 101.563 40.3672 102.26 40.0547C102.963 39.7422 103.734 39.5859 104.574 39.5859C105.44 39.5859 106.221 39.7422 106.918 40.0547C107.621 40.3672 108.223 40.8229 108.724 41.4219C109.232 42.0143 109.62 42.7337 109.886 43.5801C110.16 44.4199 110.297 45.3737 110.297 46.4414ZM108.431 47.3398V46.4219C108.431 45.5755 108.344 44.8268 108.168 44.1758C107.998 43.5247 107.748 42.9779 107.416 42.5352C107.084 42.0924 106.677 41.7572 106.195 41.5293C105.72 41.3014 105.179 41.1875 104.574 41.1875C103.988 41.1875 103.457 41.3014 102.982 41.5293C102.513 41.7572 102.11 42.0924 101.771 42.5352C101.439 42.9779 101.182 43.5247 101 44.1758C100.817 44.8268 100.726 45.5755 100.726 46.4219V47.3398C100.726 48.1927 100.817 48.9479 101 49.6055C101.182 50.2565 101.442 50.8066 101.781 51.2559C102.126 51.6986 102.533 52.0339 103.002 52.2617C103.477 52.4896 104.008 52.6035 104.594 52.6035C105.205 52.6035 105.749 52.4896 106.224 52.2617C106.7 52.0339 107.1 51.6986 107.426 51.2559C107.758 50.8066 108.008 50.2565 108.177 49.6055C108.347 48.9479 108.431 48.1927 108.431 47.3398ZM124.056 39.7812V54H122.162L115.004 43.0332V54H113.119V39.7812H115.004L122.191 50.7773V39.7812H124.056ZM136.429 52.4668V54H128.9V52.4668H136.429ZM129.281 39.7812V54H127.396V39.7812H129.281ZM135.433 45.8945V47.4277H128.9V45.8945H135.433ZM136.332 39.7812V41.3242H128.9V39.7812H136.332ZM139.984 39.7812L143.402 45.2305L146.82 39.7812H149.017L144.525 46.8223L149.125 54H146.908L143.402 48.4434L139.896 54H137.679L142.279 46.8223L137.787 39.7812H139.984ZM156.566 41.041L151.859 54H149.935L155.355 39.7812H156.595L156.566 41.041ZM160.511 54L155.795 41.041L155.765 39.7812H157.006L162.445 54H160.511ZM160.267 48.7363V50.2793H152.279V48.7363H160.267ZM158.461 36.1582L159.681 36.2656C159.681 36.7409 159.587 37.1576 159.398 37.5156C159.209 37.8737 158.955 38.1504 158.636 38.3457C158.324 38.541 157.969 38.6387 157.572 38.6387C157.24 38.6387 156.967 38.5931 156.752 38.502C156.537 38.4043 156.345 38.2969 156.176 38.1797C156.006 38.056 155.827 37.9486 155.638 37.8574C155.456 37.7598 155.228 37.7109 154.955 37.7109C154.681 37.7109 154.45 37.8151 154.261 38.0234C154.079 38.2318 153.988 38.4889 153.988 38.7949L152.767 38.7363C152.767 38.2611 152.858 37.8444 153.041 37.4863C153.23 37.1217 153.483 36.8385 153.802 36.6367C154.122 36.4284 154.476 36.3242 154.867 36.3242C155.147 36.3242 155.391 36.373 155.599 36.4707C155.814 36.5618 156.016 36.6693 156.205 36.793C156.394 36.9102 156.589 37.0176 156.791 37.1152C156.993 37.2064 157.224 37.252 157.484 37.252C157.758 37.252 157.989 37.1478 158.177 36.9395C158.366 36.7246 158.461 36.4642 158.461 36.1582ZM175.179 46.4414V47.3398C175.179 48.4076 175.046 49.3646 174.779 50.2109C174.512 51.0573 174.128 51.7767 173.627 52.3691C173.125 52.9616 172.523 53.4141 171.82 53.7266C171.123 54.0391 170.342 54.1953 169.476 54.1953C168.636 54.1953 167.865 54.0391 167.162 53.7266C166.465 53.4141 165.86 52.9616 165.345 52.3691C164.838 51.7767 164.444 51.0573 164.164 50.2109C163.884 49.3646 163.744 48.4076 163.744 47.3398V46.4414C163.744 45.3737 163.881 44.4199 164.154 43.5801C164.434 42.7337 164.828 42.0143 165.336 41.4219C165.844 40.8229 166.446 40.3672 167.142 40.0547C167.845 39.7422 168.617 39.5859 169.457 39.5859C170.323 39.5859 171.104 39.7422 171.801 40.0547C172.504 40.3672 173.106 40.8229 173.607 41.4219C174.115 42.0143 174.502 42.7337 174.769 43.5801C175.043 44.4199 175.179 45.3737 175.179 46.4414ZM173.314 47.3398V46.4219C173.314 45.5755 173.226 44.8268 173.051 44.1758C172.881 43.5247 172.631 42.9779 172.299 42.5352C171.967 42.0924 171.56 41.7572 171.078 41.5293C170.603 41.3014 170.062 41.1875 169.457 41.1875C168.871 41.1875 168.34 41.3014 167.865 41.5293C167.396 41.7572 166.993 42.0924 166.654 42.5352C166.322 42.9779 166.065 43.5247 165.883 44.1758C165.7 44.8268 165.609 45.5755 165.609 46.4219V47.3398C165.609 48.1927 165.7 48.9479 165.883 49.6055C166.065 50.2565 166.325 50.8066 166.664 51.2559C167.009 51.6986 167.416 52.0339 167.885 52.2617C168.36 52.4896 168.89 52.6035 169.476 52.6035C170.088 52.6035 170.632 52.4896 171.107 52.2617C171.582 52.0339 171.983 51.6986 172.308 51.2559C172.64 50.8066 172.891 50.2565 173.06 49.6055C173.23 48.9479 173.314 48.1927 173.314 47.3398Z" fill="#05001E"/>
</svg>
