<svg width="32" height="32" viewBox="0 0 32 32" fill="none" xmlns="http://www.w3.org/2000/svg">
<path d="M25.7585 5.27841L25.763 5.27845C25.9937 5.28056 26.2143 5.37313 26.3774 5.53625C26.5397 5.69849 26.6321 5.91763 26.6352 6.14696V6.18511C26.6317 6.35892 26.5773 6.52794 26.4787 6.67122C26.379 6.81604 26.2386 6.92805 26.0753 6.99309C25.912 7.05812 25.733 7.07327 25.5611 7.03661C25.3891 6.99995 25.2319 6.91313 25.1093 6.78713C24.9867 6.66112 24.9042 6.5016 24.8723 6.32872C24.8404 6.15584 24.8604 5.97737 24.9299 5.81588C24.9994 5.6544 25.1152 5.51714 25.2627 5.42147C25.4102 5.3258 25.5827 5.27601 25.7585 5.27841Z" fill="#C10D81" stroke="#C10D81" stroke-width="2" stroke-linecap="round" stroke-linejoin="round"/>
<path d="M30.2313 1.25055C30.2418 1.25055 30.2524 1.25042 30.2629 1.25015C30.3253 1.24857 30.3874 1.2593 30.4456 1.28173C30.5039 1.30415 30.5571 1.33783 30.6023 1.38085C30.6476 1.42386 30.6839 1.47536 30.7092 1.5324C30.733 1.58621 30.7467 1.64395 30.7494 1.70269V30.275C30.7494 30.401 30.6994 30.5218 30.6103 30.6109C30.5212 30.6999 30.4004 30.75 30.2744 30.75H1.72504C1.59904 30.75 1.47822 30.7 1.38914 30.6109C1.30005 30.5218 1.25 30.401 1.25 30.275V1.72559L1.25 1.7252C1.24996 1.60124 1.29838 1.48218 1.38491 1.39343C1.46894 1.30724 1.58245 1.25627 1.70241 1.25055H30.2313Z" stroke="#C10D81" stroke-width="2.5" stroke-linecap="round" stroke-linejoin="round"/>
<path d="M12.6834 11.0584C13.6523 10.411 14.7914 10.0654 15.9566 10.0654C17.5192 10.0654 19.0178 10.6862 20.1227 11.7911C21.2276 12.896 21.8483 14.3945 21.8483 15.9571C21.8483 17.1223 21.5027 18.2614 20.8554 19.2303C20.208 20.1992 19.2878 20.9543 18.2113 21.4003C17.1347 21.8462 15.9501 21.9629 14.8072 21.7355C13.6644 21.5082 12.6146 20.9471 11.7906 20.1231C10.9666 19.2992 10.4055 18.2494 10.1782 17.1065C9.95085 15.9636 10.0675 14.779 10.5135 13.7024C10.9594 12.6259 11.7145 11.7057 12.6834 11.0584Z" stroke="#C10D81" stroke-width="2.5" stroke-linecap="round" stroke-linejoin="round"/>
</svg>
