<svg width="147" height="110" viewBox="0 0 147 110" fill="none" xmlns="http://www.w3.org/2000/svg">
<path d="M74.0002 0L54.5214 42.0375H54.5491L60.8028 55.5638L74.0002 27.1074L87.1976 55.5642L93.4513 42.0375H93.479L74.0002 0ZM48.25 55.5716L47.7369 56.6787L42 69H54.4512L48.25 55.5716ZM99.7504 55.5716L93.5493 69H106L100.263 56.6787L99.7504 55.5716Z" fill="#C10D81"/>
<path d="M99.7505 55.5715L93.5493 69H106L100.264 56.6787L99.7505 55.5715Z" fill="#C10D81"/>
<path d="M48.25 55.5715L47.7369 56.6787L42 69H54.4512L48.25 55.5715Z" fill="#C10D81"/>
<path d="M74.0246 69L73.5116 67.8928L67.7747 55.5715H80.2258L74.0246 69Z" fill="#C10D81"/>
<path d="M21.5114 105L12.1354 86.6L2.75943 105L0.711426 109H5.19143L7.23943 105L12.1354 95.4L17.0314 105L19.0794 109H23.5594L21.5114 105Z" fill="#170048"/>
<path d="M44.6907 95.912C45.2987 94.984 45.6507 93.864 45.6507 92.648C45.6507 89.32 42.9307 86.6 39.6027 86.6H25.4907V109H40.7547C44.6907 109 47.8907 105.8 47.8907 101.864C47.8907 99.368 46.6107 97.192 44.6907 95.912ZM29.4907 90.6H39.6347C40.7547 90.6 41.6827 91.528 41.6827 92.648C41.6827 93.768 40.7547 94.696 39.6347 94.696H29.4907V90.6ZM40.7547 105H29.4907V98.696H40.7547C42.4827 98.696 43.8907 100.104 43.8907 101.832C43.8907 103.56 42.4827 104.968 40.7547 104.968V105Z" fill="#170048"/>
<path d="M71.4872 92.776V92.648C71.4872 89.32 68.7672 86.6 65.4392 86.6H56.3512C53.0232 86.6 50.3352 89.32 50.3352 92.648V92.776C50.3352 94.056 50.7192 95.24 51.3912 96.2C51.6152 96.552 51.8712 96.872 52.1592 97.16C53.2472 98.216 54.7192 98.856 56.3512 98.856H64.4152C66.1112 98.856 67.5192 100.232 67.5192 101.928C67.5192 103.624 66.1112 105 64.4152 105H57.4072C55.7112 105 54.3352 103.624 54.3352 101.928H50.3352C50.3352 105.832 53.5032 109 57.4072 109H64.4152C68.3192 109 71.4872 105.832 71.4872 101.928C71.4872 100.232 70.8792 98.664 69.8872 97.448C69.7912 97.352 69.7272 97.256 69.6312 97.16C68.3512 95.752 66.4952 94.856 64.4152 94.856H56.3512C55.2312 94.856 54.3032 93.928 54.3032 92.808V92.68C54.3032 91.56 55.2312 90.632 56.3512 90.632H65.4392C66.5592 90.632 67.4872 91.56 67.4872 92.68V92.808L71.4872 92.776Z" fill="#170048"/>
<path d="M93.0782 86.6V97.8C93.0782 101.768 89.8462 105 85.8782 105C81.9102 105 78.6782 101.768 78.6782 97.8V86.6H74.6782V97.8C74.6782 103.976 79.7022 109 85.8782 109C92.0542 109 97.0782 103.976 97.0782 97.8V86.6H93.0782Z" fill="#170048"/>
<path d="M115.152 98.664C115.76 98.6 116.336 98.44 116.88 98.184C118.96 97.224 120.4 95.112 120.4 92.68C120.4 91.016 119.728 89.512 118.64 88.392C117.552 87.304 116.048 86.632 114.384 86.632H100.24V109.032H104.24V98.728H108.24C109.68 98.728 110.928 99.496 111.632 100.648L111.728 100.84L113.872 105.032L115.92 109.032H120.4L118.352 105.032L115.152 98.664ZM104.24 94.76V90.632H114.384C115.088 90.632 115.568 90.952 115.824 91.208C116.048 91.432 116.432 91.944 116.432 92.68C116.432 93.48 115.952 94.216 115.216 94.536C114.96 94.664 114.672 94.728 114.384 94.728L104.24 94.76Z" fill="#170048"/>
<path d="M123.647 86.6V109H134.847C137.919 109 140.703 107.752 142.719 105.704C142.943 105.48 143.167 105.256 143.359 105.032C145.023 103.08 146.015 100.552 146.015 97.8C146.015 91.624 140.991 86.632 134.815 86.632L123.647 86.6ZM127.615 90.632H134.815C138.783 90.632 142.015 93.864 142.015 97.832C142.015 101.8 138.783 105.032 134.815 105.032H127.615V90.632Z" fill="#170048"/>
</svg>
