<svg width="166" height="112" viewBox="0 0 166 112" fill="none" xmlns="http://www.w3.org/2000/svg">
<path d="M83.0002 0L63.5214 42.0375H63.5491L69.8028 55.5638L83.0002 27.1074L96.1976 55.5642L102.451 42.0375H102.479L83.0002 0ZM57.25 55.5716L56.7369 56.6787L51 69H63.4512L57.25 55.5716ZM108.75 55.5716L102.549 69H115L109.263 56.6787L108.75 55.5716Z" fill="#C10D81"/>
<path d="M108.75 55.5715L102.549 69H115L109.264 56.6787L108.75 55.5715Z" fill="#C10D81"/>
<path d="M57.25 55.5715L56.7369 56.6787L51 69H63.4512L57.25 55.5715Z" fill="#C10D81"/>
<path d="M83.0246 69L82.5116 67.8928L76.7747 55.5715H89.2258L83.0246 69Z" fill="#C10D81"/>
<path d="M30.5114 105L21.1354 86.6L11.7594 105L9.71138 109H14.1914L16.2394 105L21.1354 95.4L26.0314 105L28.0794 109H32.5594L30.5114 105ZM53.6906 95.912C54.2986 94.984 54.6506 93.864 54.6506 92.648C54.6506 89.32 51.9306 86.6 48.6026 86.6H34.4906V109H49.7546C53.6906 109 56.8906 105.8 56.8906 101.864C56.8906 99.368 55.6106 97.192 53.6906 95.912ZM38.4906 90.6H48.6346C49.7546 90.6 50.6826 91.528 50.6826 92.648C50.6826 93.768 49.7546 94.696 48.6346 94.696H38.4906V90.6ZM49.7546 105H38.4906V98.696H49.7546C51.4826 98.696 52.8906 100.104 52.8906 101.832C52.8906 103.56 51.4826 104.968 49.7546 104.968V105ZM80.4871 92.776V92.648C80.4871 89.32 77.7671 86.6 74.4391 86.6H65.3511C62.0231 86.6 59.3351 89.32 59.3351 92.648V92.776C59.3351 94.056 59.7191 95.24 60.3911 96.2C60.6151 96.552 60.8711 96.872 61.1591 97.16C62.2471 98.216 63.7191 98.856 65.3511 98.856H73.4151C75.1111 98.856 76.5191 100.232 76.5191 101.928C76.5191 103.624 75.1111 105 73.4151 105H66.4071C64.7111 105 63.3351 103.624 63.3351 101.928H59.3351C59.3351 105.832 62.5031 109 66.4071 109H73.4151C77.3191 109 80.4871 105.832 80.4871 101.928C80.4871 100.232 79.8791 98.664 78.8871 97.448C78.7911 97.352 78.7271 97.256 78.6311 97.16C77.3511 95.752 75.4951 94.856 73.4151 94.856H65.3511C64.2311 94.856 63.3031 93.928 63.3031 92.808V92.68C63.3031 91.56 64.2311 90.632 65.3511 90.632H74.4391C75.5591 90.632 76.4871 91.56 76.4871 92.68V92.808L80.4871 92.776ZM102.078 86.6V97.8C102.078 101.768 98.8461 105 94.8781 105C90.9101 105 87.6781 101.768 87.6781 97.8V86.6H83.6781V97.8C83.6781 103.976 88.7021 109 94.8781 109C101.054 109 106.078 103.976 106.078 97.8V86.6H102.078ZM124.152 98.664C124.76 98.6 125.336 98.44 125.88 98.184C127.96 97.224 129.4 95.112 129.4 92.68C129.4 91.016 128.728 89.512 127.64 88.392C126.552 87.304 125.048 86.632 123.384 86.632H109.24V109.032H113.24V98.728H117.24C118.68 98.728 119.928 99.496 120.632 100.648L120.728 100.84L122.872 105.032L124.92 109.032H129.4L127.352 105.032L124.152 98.664ZM113.24 94.76V90.632H123.384C124.088 90.632 124.568 90.952 124.824 91.208C125.048 91.432 125.432 91.944 125.432 92.68C125.432 93.48 124.952 94.216 124.216 94.536C123.96 94.664 123.672 94.728 123.384 94.728L113.24 94.76ZM132.647 86.6V109H143.847C146.919 109 149.703 107.752 151.719 105.704C151.943 105.48 152.167 105.256 152.359 105.032C154.023 103.08 155.015 100.552 155.015 97.8C155.015 91.624 149.991 86.632 143.815 86.632L132.647 86.6ZM136.615 90.632H143.815C147.783 90.632 151.015 93.864 151.015 97.832C151.015 101.8 147.783 105.032 143.815 105.032H136.615V90.632Z" fill="white"/>
</svg>
