<svg width="260" height="260" viewBox="0 0 260 260" fill="none" xmlns="http://www.w3.org/2000/svg">
<circle cx="130" cy="130" r="130" fill="white"/>
<path d="M59.3438 148.5L113.328 170.375V185.688L49.4219 156.078V147.094L59.3438 148.5ZM113.328 130.531L59.4219 152.719L49.4219 153.812V144.75L113.328 115.219V130.531ZM182.156 86.625V201H167.703V104.672L138.562 115.297V102.25L179.891 86.625H182.156Z" fill="#C10D81"/>
<path d="M113.895 48.4238H110.096V46.8906H113.895C114.63 46.8906 115.226 46.7734 115.682 46.5391C116.137 46.3047 116.469 45.9792 116.678 45.5625C116.893 45.1458 117 44.6706 117 44.1367C117 43.6484 116.893 43.1895 116.678 42.7598C116.469 42.3301 116.137 41.985 115.682 41.7246C115.226 41.4577 114.63 41.3242 113.895 41.3242H110.535V54H108.65V39.7812H113.895C114.969 39.7812 115.877 39.9668 116.619 40.3379C117.361 40.709 117.924 41.2233 118.309 41.8809C118.693 42.5319 118.885 43.2773 118.885 44.1172C118.885 45.0286 118.693 45.8066 118.309 46.4512C117.924 47.0957 117.361 47.5872 116.619 47.9258C115.877 48.2578 114.969 48.4238 113.895 48.4238ZM123.289 39.7812V54H121.404V39.7812H123.289ZM137.654 39.7812V54H135.76L128.602 43.0332V54H126.717V39.7812H128.602L135.789 50.7773V39.7812H137.654ZM151.502 46.9199V52.125C151.326 52.3854 151.046 52.6784 150.662 53.0039C150.278 53.3229 149.747 53.6029 149.07 53.8438C148.4 54.0781 147.534 54.1953 146.473 54.1953C145.607 54.1953 144.809 54.0456 144.08 53.7461C143.357 53.4401 142.729 52.9974 142.195 52.418C141.668 51.832 141.258 51.1224 140.965 50.2891C140.678 49.4492 140.535 48.4987 140.535 47.4375V46.334C140.535 45.2728 140.659 44.3255 140.906 43.4922C141.16 42.6589 141.531 41.9525 142.02 41.373C142.508 40.7871 143.107 40.3444 143.816 40.0449C144.526 39.7389 145.34 39.5859 146.258 39.5859C147.345 39.5859 148.253 39.7747 148.982 40.1523C149.718 40.5234 150.291 41.0378 150.701 41.6953C151.118 42.3529 151.385 43.1016 151.502 43.9414H149.617C149.533 43.4271 149.363 42.9583 149.109 42.5352C148.862 42.112 148.507 41.7734 148.045 41.5195C147.583 41.2591 146.987 41.1289 146.258 41.1289C145.6 41.1289 145.031 41.2493 144.549 41.4902C144.067 41.7311 143.67 42.0762 143.357 42.5254C143.045 42.9746 142.811 43.5182 142.654 44.1562C142.505 44.7943 142.43 45.5137 142.43 46.3145V47.4375C142.43 48.2578 142.524 48.9902 142.713 49.6348C142.908 50.2793 143.185 50.8294 143.543 51.2852C143.901 51.7344 144.327 52.0762 144.822 52.3105C145.324 52.5449 145.877 52.6621 146.482 52.6621C147.153 52.6621 147.697 52.6068 148.113 52.4961C148.53 52.3789 148.855 52.2422 149.09 52.0859C149.324 51.9232 149.503 51.7702 149.627 51.627V48.4434H146.336V46.9199H151.502Z" fill="#05001E"/>
</svg>
