<svg width="40" height="40" viewBox="0 0 40 40" fill="none" xmlns="http://www.w3.org/2000/svg">
<path d="M28.8889 2.66667C32.2222 2.66667 35.5556 4 38.2222 6.44445L40 4.66667C36.8889 1.55556 32.8889 0 28.8889 0C24.8889 0 20.8889 1.55556 17.7778 4.66667L19.5556 6.44445C22.2222 4 25.5556 2.66667 28.8889 2.66667ZM21.5556 8.22222L23.3333 10C24.8889 8.44444 26.8889 7.77778 28.8889 7.77778C30.8889 7.77778 32.8889 8.44444 34.4444 10L36.2222 8.22222C34.2222 6.22222 31.5556 5.11111 28.8889 5.11111C26.2222 5.11111 23.5556 6.22222 21.5556 8.22222ZM35.5556 22.2222H31.1111V13.3333H26.6667V22.2222H4.44444C2 22.2222 0 24.2222 0 26.6667V35.5556C0 38 2 40 4.44444 40H35.5556C38 40 40 38 40 35.5556V26.6667C40 24.2222 38 22.2222 35.5556 22.2222ZM35.5556 35.5556H4.44444V26.6667H35.5556V35.5556ZM6.66667 28.8889H11.1111V33.3333H6.66667V28.8889ZM14.4444 28.8889H18.8889V33.3333H14.4444V28.8889ZM22.2222 28.8889H26.6667V33.3333H22.2222V28.8889Z" fill="#C10D81"/>
</svg>
