<svg width="60" height="40" viewBox="0 0 60 40" fill="none" xmlns="http://www.w3.org/2000/svg">
<path d="M48.375 15.1C46.675 6.475 39.1 0 30 0C22.775 0 16.5 4.1 13.375 10.1C5.85003 10.9 3.05176e-05 17.275 3.05176e-05 25C3.05176e-05 33.275 6.72503 40 15 40H47.5C54.4 40 60 34.4 60 27.5C60 20.9 54.875 15.55 48.375 15.1ZM47.5 35H15C9.47503 35 5.00003 30.525 5.00003 25C5.00003 19.875 8.82503 15.6 13.9 15.075L16.575 14.8L17.825 12.425C20.2 7.85 24.85 5 30 5C36.55 5 42.2 9.65 43.475 16.075L44.225 19.825L48.05 20.1C51.95 20.35 55 23.625 55 27.5C55 31.625 51.625 35 47.5 35ZM20 22.5H26.375V30H33.625V22.5H40L30 12.5L20 22.5Z" fill="#C10D81"/>
</svg>
