<svg width="56" height="40" viewBox="0 0 56 40" fill="none" xmlns="http://www.w3.org/2000/svg">
<path d="M37.9273 1.39533C37.4945 1.39533 37.1127 1.62696 36.8836 1.98727L36.7055 2.37332L23.52 32.3563C23.1127 33.1026 22.8582 33.9262 22.8582 34.827C22.8582 37.6837 25.1491 40 27.9745 40C30.4182 40 32.48 38.2499 32.9636 35.9079L32.9891 35.8307L39.2 2.68215C39.2 1.96153 38.64 1.39533 37.9273 1.39533ZM0 11.6899L5.09091 16.8372C12.4218 9.4251 22.3745 6.33673 31.8945 7.5206L34.9236 0.623236C22.6291 -1.5901 9.52 2.09021 0 11.6899ZM50.9091 16.8372L56 11.6899C51.8255 7.46913 46.9636 4.43223 41.7709 2.502L40.4218 9.75968C44.24 11.3553 47.8036 13.6974 50.9091 16.8372ZM40.7273 27.1318L45.8182 21.9845C43.7818 19.9256 41.4909 18.3299 39.0473 17.1203L37.6473 24.6353C38.7164 25.3302 39.76 26.1538 40.7273 27.1318ZM10.1818 21.9845L15.2727 27.1318C18.1491 24.2236 21.7891 22.525 25.5309 21.9845L28.7891 14.5724C22.0945 14.3665 15.2982 16.8115 10.1818 21.9845Z" fill="#C10D81"/>
</svg>
