<svg width="260" height="260" viewBox="0 0 260 260" fill="none" xmlns="http://www.w3.org/2000/svg">
<circle cx="130" cy="130" r="130" fill="white"/>
<path d="M115.391 49.7031L118.213 39.7812H119.58L118.789 43.6387L115.752 54H114.395L115.391 49.7031ZM112.471 39.7812L114.717 49.5078L115.391 54H114.043L110.596 39.7812H112.471ZM123.232 49.498L125.43 39.7812H127.314L123.877 54H122.529L123.232 49.498ZM119.785 39.7812L122.529 49.7031L123.525 54H122.168L119.238 43.6387L118.438 39.7812H119.785ZM131.426 39.7812V54H129.541V39.7812H131.426ZM136.738 39.7812V54H134.854V39.7812H136.738ZM142.695 46.1777V47.7207H136.328V46.1777H142.695ZM143.662 39.7812V41.3242H136.328V39.7812H143.662ZM147.93 39.7812V54H146.045V39.7812H147.93Z" fill="#05001E"/>
<path d="M46 121.541L61.1898 136.715C98.9365 99.0068 160.151 99.0068 197.898 136.715L213.088 121.541C166.987 75.4864 92.177 75.4864 46 121.541ZM106.759 182.238L129.544 205L152.329 182.238C139.797 169.644 119.367 169.644 106.759 182.238ZM76.3796 151.89L91.5695 167.064C112.531 146.123 146.557 146.123 167.519 167.064L182.708 151.89C153.392 122.603 105.772 122.603 76.3796 151.89Z" fill="#C10D81"/>
</svg>
